<svg width="758" height="758" xmlns="http://www.w3.org/2000/svg" xmlns:xlink="http://www.w3.org/1999/xlink" overflow="hidden"><defs><clipPath id="clip0"><rect x="-1" y="-1" width="758" height="758"></rect></clipPath></defs><g clip-path="url(#clip0)" transform="translate(1 1)"><path d="M645.304 110.696C573.96 39.2793 479.004 0 378 0 169.579 0 0 169.579 0 378 0 479.004 39.3522 573.887 110.696 645.304 182.113 716.721 276.996 756 378 756 478.931 756 573.887 716.721 645.304 645.304 716.721 573.887 756 479.004 756 378 756.073 277.069 716.721 182.113 645.304 110.696ZM341.636 511.142C313.433 509.174 286.615 504.583 261.255 498.097 246.389 445.992 240.705 393.887 244.275 342.073 246.316 312.704 251.198 284.794 258.194 258.632 284.429 251.709 312.267 246.753 341.636 244.713 393.449 241.142 445.555 246.899 497.66 261.765 504.219 287.053 508.81 313.943 510.704 342.146 514.202 392.939 508.737 444.024 494.526 495.109 443.441 509.174 392.429 514.64 341.636 511.142ZM461.879 581.976C440.526 627.012 412.397 671.976 377.49 716.794 343.093 672.632 315.255 628.324 294.049 583.943 307.457 585.984 321.158 587.514 335.223 588.534 377.49 591.522 419.757 589.263 461.879 581.976ZM174.17 466.397C114.486 438.194 68.7207 402.85 40.5182 377.854 68.3562 353.15 113.393 318.389 172.057 290.332 169.725 305.053 167.903 320.138 166.81 335.587 163.749 379.312 166.227 422.964 174.17 466.397ZM588.097 335.66C587.077 321.595 585.547 307.895 583.506 294.486 627.887 315.692 672.194 343.53 716.356 377.927 671.539 412.834 626.575 440.964 581.538 462.316 588.826 420.194 591.085 377.927 588.097 335.66ZM629.636 126.364C674.453 171.255 705.862 225.911 721.749 285.522 668.405 248.648 614.551 220.227 560.405 200.405 537.158 132.486 503.49 76.4453 472.664 34.8339 531.474 50.9393 585.401 82.1295 629.636 126.364ZM377.49 40.9555C402.486 69.0851 437.83 114.923 466.032 174.607 422.526 166.664 378.947 164.259 335.296 167.32 319.846 168.413 304.761 170.162 290.04 172.494 317.951 113.83 352.785 68.7935 377.49 40.9555ZM126.437 126.364C170.308 82.4939 223.725 51.4494 281.951 35.1984 251.854 76.008 218.988 130.445 195.887 196.324 130.154 219.352 75.8623 252.073 35.1255 282.097 51.3766 223.798 82.4211 170.381 126.437 126.364ZM126.437 629.636C82.3482 585.62 51.3037 532.057 35.1255 473.611 76.7369 504.291 132.413 537.741 200.04 560.842 219.789 614.769 248.065 668.405 284.721 721.531 225.328 705.498 171.036 674.235 126.437 629.636ZM470.186 721.749C507.862 667.239 536.575 612.219 556.397 556.834 611.854 536.939 667.02 508.081 721.676 470.332 688.81 592.542 592.397 688.956 470.186 721.749Z" fill="#005EAE" fill-rule="evenodd"></path></g></svg>